<?xml version="1.0" encoding="UTF-8" standalone="no"?>
<svg
   xmlns:dc="http://purl.org/dc/elements/1.1/"
   xmlns:cc="http://creativecommons.org/ns#"
   xmlns:rdf="http://www.w3.org/1999/02/22-rdf-syntax-ns#"
   xmlns:svg="http://www.w3.org/2000/svg"
   xmlns="http://www.w3.org/2000/svg"
   version="1.1"
   id="Capa_1"
   x="0px"
   y="0px"
   width="65"
   height="65"
   viewBox="0 0 65 65"
   xml:space="preserve"><metadata
     id="metadata1025"><rdf:RDF><cc:Work
         rdf:about=""><dc:format>image/svg+xml</dc:format><dc:type
           rdf:resource="http://purl.org/dc/dcmitype/StillImage" /><dc:title></dc:title></cc:Work></rdf:RDF></metadata><defs
     id="defs1023" /><g
     id="g3739"
     transform="matrix(1.172836,0,0,1.172836,-5.6171733,-5.3934702)"><path
       style="fill:#000000;fill-opacity:1;stroke-width:1"
       id="path976"
       d="M 39.827369,9.2075493 H 27.355342 V 28.447906 h 4.174089 v 0.43077 c 0,0.601796 0.26402,1.140526 0.677688,1.51785 -0.268296,0.04489 -0.549419,0.08017 -0.829473,0.111167 -1.201454,0.140027 -2.563243,0.298226 -2.85078,1.573434 l -0.01283,0.107959 c -0.0064,0.345258 0.120787,0.652035 0.367705,0.889332 0.765339,0.73541 2.494833,0.674482 5.255824,0.50987 2.166678,-0.1272 4.863535,-0.286468 5.660941,0.44039 0.135751,0.125063 0.200954,0.267227 0.206299,0.461769 0.03421,1.044324 -1.630086,1.254899 -3.987029,1.438751 -1.906934,0.148578 -3.705907,0.289674 -4.532173,1.259174 -0.322811,0.378394 -0.463907,0.878639 -0.419013,1.419507 0,0.583268 0,1.166536 0,1.749804 l 4.470177,0.02138 c 3.326443,0 5.183138,1.837454 5.16176,5.052731 0,3.695218 -2.052305,5.593599 -5.505949,5.572221 -0.539799,0 -1.100976,0 -1.468681,-0.0652 v -8.083088 h -2.656238 v 10.070189 c 0.863679,0.110098 2.029858,0.19561 3.58512,0.19561 2.828333,0 5.140382,-0.670205 6.586616,-1.987101 1.382098,-1.252761 2.267155,-3.194968 2.267155,-5.787072 0,-2.483074 -0.862609,-4.2115 -2.267155,-5.355232 -1.338274,-1.123423 -3.217416,-1.6846 -5.938857,-1.6846 -1.130906,0 -2.211572,0.05772 -3.165039,0.159267 -0.0171,-0.243711 0.03421,-0.428632 0.165681,-0.584693 0.536592,-0.630656 2.270362,-0.766407 3.801039,-0.886125 2.363357,-0.183852 5.04418,-0.39229 4.972564,-2.539727 -0.0171,-0.476734 -0.2063,-0.897884 -0.555833,-1.214281 -1.130905,-1.033634 -3.830969,-0.872229 -6.443382,-0.718306 -1.758354,0.104753 -3.939997,0.234091 -4.47552,-0.295019 0.174232,-0.423288 0.847644,-0.531248 1.901588,-0.652034 0.838025,-0.09834 1.753011,-0.210575 2.425354,-0.66593 0.97912,-0.159268 1.728425,-1.002637 1.728425,-2.026651 v -0.431839 h 4.17302 c 0,-18.6203868 -0.0011,1.08638 -0.0011,-19.2446327 z" /><path
       style="fill:#000000;fill-opacity:1;stroke-width:1"
       id="path978"
       d="m 26.154958,13.816684 h 0.354878 v -3.607567 h -0.354878 c -0.997292,0 -1.804318,0.807026 -1.804318,1.804318 0,0.997291 0.807026,1.803249 1.804318,1.803249 z" /><path
       style="fill:#000000;fill-opacity:1;stroke-width:1"
       id="path980"
       d="m 40.383202,10.209117 v 3.607567 h 0.354877 c 0.998361,0 1.804318,-0.807026 1.804318,-1.804318 0,-0.997292 -0.807026,-1.804318 -1.804318,-1.804318 z" /><path
       style="fill:#000000;fill-opacity:1;stroke-width:1"
       id="path984"
       d="m 27.800008,45.451037 v -0.04276 c 1.727357,-0.603933 2.591035,-1.812869 2.591035,-3.282618 0,-1.836385 -1.490059,-3.434404 -4.384663,-3.434404 -1.6846,0 -3.239863,0.518421 -4.038337,1.079598 l 0.605002,1.922967 c 0.582555,-0.388014 1.727356,-0.885057 2.872158,-0.885057 1.532815,0 2.245777,0.799544 2.245777,1.748735 0,1.403477 -1.555262,1.965723 -2.785576,1.965723 H 23.717846 V 46.4665 h 1.230314 c 1.620466,0 3.174659,0.712962 3.174659,2.375115 0.02138,1.102045 -0.799544,2.247915 -2.828333,2.247915 -1.338273,0 -2.656238,-0.540868 -3.196037,-0.865816 l -0.605002,2.009548 c 0.755719,0.497043 2.224399,0.970569 3.930377,0.970569 3.47716,0 5.464262,-1.878072 5.464262,-4.253187 0,-1.901589 -1.382099,-3.197106 -3.088078,-3.499607 z" /></g><path
     style="fill:none;stroke:#000000;stroke-width:2;stroke-miterlimit:4;stroke-dasharray:none;stroke-opacity:1"
     d="M 53.32754,58.786001 H 15.602645 c -7.7065458,0 -13.9767101,-6.443371 -13.9767101,-14.362803 0,-7.919434 6.2691456,-14.363851 13.9767101,-14.363851 1.256071,0 2.512141,0.179011 3.741725,0.534941 2.183097,-5.26043 7.226734,-8.728649 12.846961,-8.728649 4.034094,0 7.802305,1.758711 10.462158,4.854251 1.233659,-0.534941 2.56817,-0.815497 3.904719,-0.815497 5.539748,0 10.046524,4.631271 10.046524,10.32405 0,0.798748 -0.09372,1.595401 -0.27607,2.381587 4.142078,1.329502 7.045403,5.304397 7.045403,9.85192 0,5.691733 -4.506776,10.324051 -10.046525,10.324051 z"
     id="path1350" /></svg>
