<?xml version="1.0" encoding="UTF-8"?>
<svg width="64mm" height="32.297mm" version="1.1" viewBox="0 0 64 32.297" xmlns="http://www.w3.org/2000/svg">
 <g transform="translate(-73 -102.88)">
  <g stroke-width=".28703">
   <path d="m82.222 113.06v-6.6361l-2.9506 5.155h-0.50517l-2.9621-5.155v6.6361h-0.80368v-8.1516h0.82664l3.1803 5.5798 3.2032-5.5798h0.81516v8.1516z"/>
   <path d="m84.368 111.34q0-0.56257 0.32147-0.96441 0.32147-0.41332 0.88404-0.63146 0.57406-0.22962 1.3203-0.22962 0.43628 0 0.90701 0.0689t0.83812 0.20666v-0.50517q0-0.75775-0.44776-1.2055t-1.24-0.44776q-0.48221 0-0.95293 0.18369-0.45924 0.17222-0.96441 0.51665l-0.29851-0.55109q0.58554-0.40184 1.1481-0.59702 0.56257-0.20666 1.1481-0.20666 1.1022 0 1.7451 0.63146t0.64294 1.7451v2.767q0 0.16073 0.06889 0.2411 0.06889 0.0689 0.21814 0.0804v0.61998q-0.12629 0.0115-0.21814 0.023-0.09185 0.0115-0.13777 0-0.28703-0.0115-0.43628-0.1837-0.14925-0.17222-0.16074-0.36739l-0.01148-0.43629q-0.40184 0.51665-1.0448 0.80368-0.64294 0.27555-1.3088 0.27555-0.57406 0-1.0448-0.24111-0.45924-0.25258-0.72331-0.6659-0.25258-0.4248-0.25258-0.92997zm4.0069 0.45925q0.12629-0.16074 0.19518-0.30999 0.06889-0.14926 0.06889-0.26407v-0.87256q-0.39036-0.14926-0.81516-0.22963-0.41332-0.0804-0.83812-0.0804-0.83812 0-1.3548 0.33295-0.51665 0.33295-0.51665 0.90701 0 0.33295 0.17222 0.63146 0.17222 0.28702 0.50517 0.4822 0.33295 0.1837 0.78072 0.1837 0.56257 0 1.0448-0.21814 0.49369-0.21814 0.75775-0.56257z"/>
   <path d="m95.379 113.06-2.2159-3.0655-1.2744 1.194v1.8714h-0.78072v-8.3812h0.78072v5.6717l3.3869-3.2606h0.86108l-2.4455 2.4455 2.5373 3.5247z"/>
   <path d="m99.466 113.18q-0.64294 0-1.194-0.24111-0.55109-0.25258-0.95293-0.67738-0.40184-0.43628-0.63146-0.99886-0.21814-0.56257-0.21814-1.2055 0-0.83812 0.37888-1.5385 0.39036-0.70035 1.0677-1.1137 0.67738-0.4248 1.5385-0.4248 0.88405 0 1.5385 0.4248 0.6659 0.4248 1.0448 1.1252 0.37888 0.68887 0.37888 1.5155 0 0.0919 0 0.18369 0 0.0804-0.0115 0.1263h-5.1206q0.05741 0.64294 0.35591 1.1481 0.30999 0.49368 0.7922 0.79219 0.49369 0.28703 1.0677 0.28703 0.58553 0 1.1022-0.29851 0.52813-0.29851 0.73479-0.78071l0.67739 0.18369q-0.1837 0.4248-0.56258 0.76924-0.37887 0.34443-0.89552 0.53961-0.50517 0.1837-1.0907 0.1837zm-2.2044-3.3869h4.4202q-0.0459-0.65442-0.35592-1.1481-0.29851-0.49368-0.79219-0.76923-0.48221-0.28703-1.0677-0.28703t-1.0677 0.28703q-0.48221 0.27555-0.7922 0.78071-0.29851 0.49369-0.34443 1.1366z"/>
   <path d="m106.61 107.77q-0.78072 0.023-1.3777 0.43628-0.58554 0.41332-0.82664 1.1366v3.7199h-0.78072v-5.9817h0.73479v1.4351q0.30999-0.63146 0.81516-1.0218 0.51665-0.39035 1.0907-0.43628 0.11482-0.0115 0.19518-0.0115 0.0919 0 0.14926 0.0115z"/>
   <path d="m107.64 113.06v-8.1516h3.6051q0.56257 0 1.0333 0.22962 0.4822 0.22962 0.82664 0.61998 0.35591 0.39035 0.53961 0.87256 0.19518 0.48221 0.19518 0.98737 0 0.51665-0.1837 0.99886-0.17222 0.47073-0.50517 0.82664t-0.78071 0.55109l1.8599 3.0655h-1.7451l-1.6762-2.7325h-1.5844v2.7325zm1.5844-4.1217h1.9862q0.2985 0 0.52813-0.17222 0.22962-0.18369 0.36739-0.4822t0.13777-0.66591q0-0.39035-0.16073-0.67738-0.16074-0.29851-0.41332-0.47073-0.2411-0.17221-0.52813-0.17221h-1.9173z"/>
   <path d="m117.71 113.18q-0.72331 0-1.3088-0.24111-0.58553-0.25258-0.99885-0.67738-0.41332-0.43628-0.64294-0.98738-0.21815-0.56257-0.21815-1.1826 0-0.86108 0.37888-1.5729 0.39036-0.71183 1.1022-1.1366 0.72331-0.43628 1.6992-0.43628 0.98737 0 1.6877 0.43628 0.70035 0.4248 1.0677 1.1366 0.37888 0.70035 0.37888 1.5155 0 0.13777-0.0115 0.28702-0.0115 0.13778-0.023 0.22963h-4.6498q0.0459 0.45924 0.26407 0.80367 0.22962 0.34444 0.57405 0.52813 0.35592 0.17222 0.75775 0.17222 0.45925 0 0.86109-0.21814 0.41332-0.22962 0.56257-0.59702l1.3203 0.3674q-0.21814 0.45924-0.63146 0.81515-0.40184 0.35592-0.95293 0.56258-0.5511 0.19518-1.217 0.19518zm-1.5729-3.6051h3.1458q-0.0459-0.45924-0.26407-0.79219-0.20666-0.34444-0.55109-0.52813-0.34443-0.19518-0.76923-0.19518-0.41332 0-0.75776 0.19518-0.33295 0.18369-0.55109 0.52813-0.20666 0.33295-0.25258 0.79219z"/>
   <path d="m125.4 113.18q-0.70035 0-1.24-0.30999-0.52813-0.32147-0.82664-0.86108v3.5017h-1.5385v-8.4616h1.3433v1.0333q0.34443-0.52813 0.87256-0.82664 0.52813-0.30999 1.2055-0.30999 0.6085 0 1.1137 0.2411 0.51665 0.24111 0.89552 0.67739 0.37888 0.4248 0.58554 0.98737 0.21814 0.5511 0.21814 1.194 0 0.87256-0.34443 1.5844-0.33296 0.71183-0.92997 1.1366-0.58554 0.41332-1.3548 0.41332zm-0.51665-1.3088q0.35591 0 0.64294-0.14925 0.28703-0.14926 0.49369-0.40184 0.21814-0.26407 0.32147-0.58554 0.11481-0.33295 0.11481-0.68886 0-0.37888-0.12629-0.70035-0.11481-0.32147-0.34444-0.56257-0.22962-0.25259-0.53961-0.39036-0.29851-0.13777-0.65442-0.13777-0.21814 0-0.44776 0.0804-0.21814 0.0689-0.4248 0.20666-0.20666 0.13778-0.3674 0.32147-0.14925 0.1837-0.21814 0.40184v1.4122q0.13777 0.33295 0.36739 0.6085 0.24111 0.27554 0.5511 0.43628 0.30999 0.14925 0.63146 0.14925z"/>
   <path d="m131.85 113.18q-0.73479 0-1.3203-0.24111-0.58553-0.25258-0.99885-0.68886-0.40184-0.43628-0.61998-0.99886-0.21814-0.56257-0.21814-1.1826 0-0.63146 0.21814-1.194 0.21814-0.56257 0.61998-0.99885 0.41332-0.43628 0.99885-0.67739 0.58554-0.25258 1.3203-0.25258t1.3088 0.25258q0.58553 0.24111 0.99885 0.67739t0.61998 0.99885q0.21814 0.56258 0.21814 1.194 0 0.61998-0.21814 1.1826-0.20666 0.56258-0.61998 0.99886-0.40184 0.43628-0.98737 0.68886-0.58554 0.24111-1.3203 0.24111zm-1.5729-3.1114q0 0.52813 0.20666 0.94145 0.20666 0.40184 0.56257 0.63146 0.35592 0.22962 0.80368 0.22962 0.43628 0 0.7922-0.22962 0.35591-0.2411 0.56257-0.64294 0.21814-0.41332 0.21814-0.94145 0-0.51665-0.21814-0.92997-0.20666-0.41332-0.56257-0.64294-0.35592-0.22962-0.7922-0.22962-0.44776 0-0.80368 0.2411-0.35591 0.22962-0.56257 0.64294-0.20666 0.40184-0.20666 0.92997z"/>
  </g>
  <g stroke-width=".54035">
   <path d="m75 132.89v-15.346h6.3113q0.97262 0 1.7723 0.41066 0.82133 0.41066 1.4265 1.1023 0.60519 0.67003 0.9294 1.513 0.34582 0.84294 0.34582 1.7291 0 1.232-0.56196 2.3343-0.54035 1.0807-1.513 1.7723-0.95101 0.69164-2.2695 0.69164h-5.3386v5.7925zm1.1023-6.8084h5.2954q1.0159 0 1.7507-0.54035 0.73487-0.54035 1.1239-1.4049 0.38905-0.86456 0.38905-1.8372 0-1.0158-0.4755-1.8588-0.45389-0.86456-1.232-1.3833-0.75649-0.51873-1.6859-0.51873h-5.1657z"/>
   <path d="m88.422 132.89v-15.346h6.3761q0.99424 0 1.794 0.41066 0.82133 0.41066 1.4049 1.1023 0.60519 0.67003 0.9294 1.513 0.34582 0.84294 0.34582 1.7291 0 1.1455-0.45389 2.1398t-1.2752 1.6643q-0.79971 0.67003-1.8804 0.82133l3.8257 5.9654h-1.2752l-3.7176-5.7925h-4.9712v5.7925zm1.1023-6.8084h5.3819q0.99424 0 1.7291-0.54035 0.73487-0.54035 1.1239-1.4049 0.41066-0.86456 0.41066-1.8372 0-0.99424-0.4755-1.8372-0.45389-0.86455-1.232-1.3833-0.75649-0.54034-1.7075-0.54034h-5.2306z"/>
   <path d="m102.45 132.89v-15.346h1.1023v15.346z"/>
   <path d="m108.67 119.6v13.293h-1.1023v-15.346h0.90779l10.699 13.509v-13.509h1.1023v15.346h-1.0807z"/>
   <path d="m135 118.54h-5.6196v14.352h-1.1023v-14.352h-5.6196v-0.99424h12.342z"/>
  </g>
 </g>
</svg>
