<?xml version="1.0" encoding="UTF-8"?>
<svg width="128" height="128" version="1.1" viewBox="0 0 128 128" xml:space="preserve" xmlns="http://www.w3.org/2000/svg" xmlns:cc="http://creativecommons.org/ns#" xmlns:dc="http://purl.org/dc/elements/1.1/" xmlns:rdf="http://www.w3.org/1999/02/22-rdf-syntax-ns#"><metadata><rdf:RDF><cc:Work rdf:about=""><dc:format>image/svg+xml</dc:format><dc:type rdf:resource="http://purl.org/dc/dcmitype/StillImage"/></cc:Work></rdf:RDF></metadata><path d="m63.42 26.656c-10.833 0-20.521 6.5266-25.23 16.43-1.9606-0.44773-3.9426-0.74219-5.9336-0.74219-15.616 0-28.256 13.302-28.256 29.5 0 16.198 12.642 29.5 28.256 29.5h70.871c11.543 0 20.873-9.8346 20.873-21.768 0-8.9577-5.2998-16.842-13.092-20.119 0.16508-1.0975 0.375-2.1903 0.375-3.3008 0-11.935-9.3301-21.768-20.873-21.768-2.331 0-4.623 0.50705-6.8184 1.3027-5.2924-5.6951-12.468-9.0352-20.172-9.0352zm10.057 26.406c6.8299 0 11.546 1.4071 14.904 4.2266 3.5249 2.8704 5.6914 7.2097 5.6914 13.441 0 6.5053-2.2228 11.379-5.6914 14.523-3.6296 3.305-9.4311 4.9863-16.529 4.9863-3.9032 0-6.8305-0.21392-8.998-0.49023v-25.273h6.666v20.285c0.92282 0.16363 2.3328 0.16406 3.6875 0.16406 8.6675 0.053652 13.816-4.7106 13.816-13.984 0.053651-8.0693-4.6049-12.68-12.953-12.68l-11.219-0.054688v-4.3906c1e-6 0 7.7868-0.75391 10.625-0.75391zm-23.324 0.96289c7.2645 0 11.004 4.0104 11.004 8.6191 0 3.6886-2.1688 6.7226-6.5039 8.2383v0.10742c4.2814 0.75918 7.752 4.0109 7.752 8.7832 0 5.9607-4.9883 10.674-13.715 10.674-4.2814 0-7.9667-1.1881-9.8633-2.4355l1.5176-5.043c1.3547 0.81551 4.6629 2.1719 8.0215 2.1719 5.0916 0 7.1513-2.8749 7.0977-5.6406 0-4.1714-3.9-5.9609-7.9668-5.9609h-3.0879v-4.877h2.9805c3.0877 0 6.9902-1.4113 6.9902-4.9336 0-2.3822-1.7879-4.3887-5.6348-4.3887-2.8731 0-5.747 1.2469-7.209 2.2207l-1.5176-4.8262c2.0039-1.4084 5.907-2.709 10.135-2.709z" color="#000000"/></svg>
