<?xml version="1.0" encoding="UTF-8" standalone="no"?>
<svg
   width="700pt"
   height="700pt"
   viewBox="0 0 700 700"
   preserveAspectRatio="xMidYMid meet"
   id="svg8"
   xmlns="http://www.w3.org/2000/svg">
  <g
     transform="translate(0.000000,700.000000) scale(0.100000,-0.100000)"
     fill="#000000"
     stroke="none"
     id="g6">
    <path
       d="M3430 5543 c-237 -13 -432 -64 -634 -164 -263 -131 -480 -335 -642 -605 -34 -57 -64 -109 -66 -116 -3 -8 -15 -9 -49 0 -55 14 -190 25 -289 25 -389 -1 -769 -163 -1054 -449 -249 -250 -403 -562 -463 -939 -9 -62 -10 -383 0 -446 5 -38 31 -162 41 -204 81 -325 295 -653 561 -861 232 -181 481 -283 785 -319 72 -9 4068 -9 4140 0 454 55 834 380 969 830 39 129 50 220 46 385 -2 114 -9 178 -24 240 -59 238 -161 423 -325 585 -110 108 -177 158 -299 219 -55 28 -56 29 -50 65 22 146 -3 377 -58 536 -27 79 -120 271 -138 285 -3 3 -18 23 -33 45 -43 63 -166 186 -243 243 -125 93 -273 160 -437 199 -87 20 -333 23 -418 5 -30 -7 -64 -14 -75 -16 -11 -2 -38 -10 -60 -18 l-41 -14 -54 54 c-196 193 -466 341 -720 396 -106 22 -124 25 -225 32 -49 3 -92 7 -95 8 -3 1 -25 0 -50 -1z"
       id="path4" />
  </g>
</svg>
